<mxfile host="app.diagrams.net" modified="2024-04-03T03:54:29.763Z" agent="Mozilla/5.0 (Windows NT 10.0; Win64; x64) AppleWebKit/537.36 (KHTML, like Gecko) Chrome/123.0.0.0 Safari/537.36" etag="CzFwMBIZEc5FrX-ppR-1" version="24.2.1" type="github">
  <diagram name="Page-1" id="3v_p0arT9vjumwwHP8JX">
    <mxGraphModel dx="1221" dy="733" grid="1" gridSize="10" guides="1" tooltips="1" connect="1" arrows="1" fold="1" page="1" pageScale="1" pageWidth="827" pageHeight="1169" math="0" shadow="0">
      <root>
        <mxCell id="0" />
        <mxCell id="1" parent="0" />
        <mxCell id="4gxvxBFfsv67P0vdj7MG-8" style="edgeStyle=orthogonalEdgeStyle;rounded=0;orthogonalLoop=1;jettySize=auto;html=1;exitX=0.5;exitY=1;exitDx=0;exitDy=0;entryX=0.5;entryY=0;entryDx=0;entryDy=0;" parent="1" source="4gxvxBFfsv67P0vdj7MG-1" target="4gxvxBFfsv67P0vdj7MG-2" edge="1">
          <mxGeometry relative="1" as="geometry" />
        </mxCell>
        <mxCell id="4gxvxBFfsv67P0vdj7MG-1" value="start" style="rounded=1;whiteSpace=wrap;html=1;" parent="1" vertex="1">
          <mxGeometry x="345" y="10" width="120" height="60" as="geometry" />
        </mxCell>
        <mxCell id="4gxvxBFfsv67P0vdj7MG-9" style="edgeStyle=orthogonalEdgeStyle;rounded=0;orthogonalLoop=1;jettySize=auto;html=1;exitX=0.5;exitY=1;exitDx=0;exitDy=0;entryX=0.5;entryY=0;entryDx=0;entryDy=0;" parent="1" source="4gxvxBFfsv67P0vdj7MG-2" target="4gxvxBFfsv67P0vdj7MG-3" edge="1">
          <mxGeometry relative="1" as="geometry" />
        </mxCell>
        <mxCell id="4gxvxBFfsv67P0vdj7MG-2" value="Save current BIT to flash from ltffs.c&lt;div&gt;&lt;br&gt;&lt;/div&gt;&lt;div&gt;fs_save_bit()&lt;br&gt;&lt;/div&gt;" style="whiteSpace=wrap;html=1;aspect=fixed;" parent="1" vertex="1">
          <mxGeometry x="340" y="110" width="130" height="130" as="geometry" />
        </mxCell>
        <mxCell id="4gxvxBFfsv67P0vdj7MG-10" style="edgeStyle=orthogonalEdgeStyle;rounded=0;orthogonalLoop=1;jettySize=auto;html=1;exitX=0.5;exitY=1;exitDx=0;exitDy=0;entryX=0.5;entryY=0;entryDx=0;entryDy=0;" parent="1" source="4gxvxBFfsv67P0vdj7MG-3" target="4gxvxBFfsv67P0vdj7MG-4" edge="1">
          <mxGeometry relative="1" as="geometry" />
        </mxCell>
        <mxCell id="4gxvxBFfsv67P0vdj7MG-3" value="Get BIT from flash and load it to TEST_BIT array in test_flash.c&lt;br&gt;&lt;br&gt;get_test_bbt()" style="whiteSpace=wrap;html=1;aspect=fixed;" parent="1" vertex="1">
          <mxGeometry x="335" y="290" width="140" height="140" as="geometry" />
        </mxCell>
        <mxCell id="4gxvxBFfsv67P0vdj7MG-44" value="" style="edgeStyle=orthogonalEdgeStyle;rounded=0;orthogonalLoop=1;jettySize=auto;html=1;" parent="1" source="4gxvxBFfsv67P0vdj7MG-4" target="4gxvxBFfsv67P0vdj7MG-41" edge="1">
          <mxGeometry relative="1" as="geometry" />
        </mxCell>
        <mxCell id="4gxvxBFfsv67P0vdj7MG-4" value="Set start block&amp;nbsp;&lt;div&gt;&lt;br&gt;&lt;/div&gt;&lt;div&gt;i =&amp;nbsp;WL_START_BLOCK&lt;/div&gt;&lt;div&gt;(block 8)&lt;/div&gt;" style="whiteSpace=wrap;html=1;aspect=fixed;" parent="1" vertex="1">
          <mxGeometry x="335" y="480" width="140" height="140" as="geometry" />
        </mxCell>
        <mxCell id="4gxvxBFfsv67P0vdj7MG-15" style="edgeStyle=orthogonalEdgeStyle;rounded=0;orthogonalLoop=1;jettySize=auto;html=1;" parent="1" source="4gxvxBFfsv67P0vdj7MG-5" edge="1">
          <mxGeometry relative="1" as="geometry">
            <mxPoint x="205" y="640" as="targetPoint" />
          </mxGeometry>
        </mxCell>
        <mxCell id="4gxvxBFfsv67P0vdj7MG-27" style="edgeStyle=orthogonalEdgeStyle;rounded=0;orthogonalLoop=1;jettySize=auto;html=1;exitX=0.5;exitY=1;exitDx=0;exitDy=0;entryX=0.5;entryY=0;entryDx=0;entryDy=0;" parent="1" source="4gxvxBFfsv67P0vdj7MG-5" target="4gxvxBFfsv67P0vdj7MG-23" edge="1">
          <mxGeometry relative="1" as="geometry" />
        </mxCell>
        <mxCell id="4gxvxBFfsv67P0vdj7MG-5" value="blk_stat == BLK_BAD ?" style="rhombus;whiteSpace=wrap;html=1;" parent="1" vertex="1">
          <mxGeometry x="317.5" y="1020" width="165" height="150" as="geometry" />
        </mxCell>
        <mxCell id="4gxvxBFfsv67P0vdj7MG-13" style="edgeStyle=orthogonalEdgeStyle;rounded=0;orthogonalLoop=1;jettySize=auto;html=1;exitX=0.5;exitY=1;exitDx=0;exitDy=0;entryX=0.5;entryY=0;entryDx=0;entryDy=0;" parent="1" source="4gxvxBFfsv67P0vdj7MG-6" target="4gxvxBFfsv67P0vdj7MG-5" edge="1">
          <mxGeometry relative="1" as="geometry" />
        </mxCell>
        <mxCell id="4gxvxBFfsv67P0vdj7MG-6" value="Get status of the i-th block from TEST_BIT&lt;br&gt;&lt;br&gt;blk_stat = test_bit_get_status(i)" style="whiteSpace=wrap;html=1;aspect=fixed;" parent="1" vertex="1">
          <mxGeometry x="330" y="830" width="140" height="140" as="geometry" />
        </mxCell>
        <mxCell id="4gxvxBFfsv67P0vdj7MG-17" value="" style="endArrow=classic;html=1;rounded=0;" parent="1" edge="1">
          <mxGeometry width="50" height="50" relative="1" as="geometry">
            <mxPoint x="200" y="640" as="sourcePoint" />
            <mxPoint x="400" y="640" as="targetPoint" />
          </mxGeometry>
        </mxCell>
        <mxCell id="4gxvxBFfsv67P0vdj7MG-18" value="NO" style="text;html=1;align=center;verticalAlign=middle;resizable=0;points=[];autosize=1;strokeColor=none;fillColor=none;fontSize=17;" parent="1" vertex="1">
          <mxGeometry x="280" y="1070" width="50" height="30" as="geometry" />
        </mxCell>
        <mxCell id="4gxvxBFfsv67P0vdj7MG-20" value="i++" style="text;html=1;align=center;verticalAlign=middle;resizable=0;points=[];autosize=1;strokeColor=none;fillColor=none;fontSize=21;" parent="1" vertex="1">
          <mxGeometry x="200" y="943" width="50" height="40" as="geometry" />
        </mxCell>
        <mxCell id="4gxvxBFfsv67P0vdj7MG-26" style="edgeStyle=orthogonalEdgeStyle;rounded=0;orthogonalLoop=1;jettySize=auto;html=1;exitX=0.5;exitY=1;exitDx=0;exitDy=0;entryX=0.5;entryY=0;entryDx=0;entryDy=0;" parent="1" source="4gxvxBFfsv67P0vdj7MG-23" edge="1">
          <mxGeometry relative="1" as="geometry">
            <mxPoint x="400" y="1380" as="targetPoint" />
          </mxGeometry>
        </mxCell>
        <mxCell id="4gxvxBFfsv67P0vdj7MG-23" value="Torture the i-th block&lt;br&gt;&lt;div&gt;&lt;br&gt;bit_bb_cnt++&lt;br&gt;&lt;br&gt;paddr = i * BLOCK_SIZE&lt;br&gt;&lt;br&gt;torture(paddr)&lt;br&gt;&lt;/div&gt;" style="whiteSpace=wrap;html=1;aspect=fixed;" parent="1" vertex="1">
          <mxGeometry x="330" y="1200" width="140" height="140" as="geometry" />
        </mxCell>
        <mxCell id="4gxvxBFfsv67P0vdj7MG-33" style="edgeStyle=orthogonalEdgeStyle;rounded=0;orthogonalLoop=1;jettySize=auto;html=1;entryX=1;entryY=0.5;entryDx=0;entryDy=0;" parent="1" edge="1">
          <mxGeometry relative="1" as="geometry">
            <mxPoint x="322.5" y="1460" as="sourcePoint" />
            <mxPoint x="270" y="1460" as="targetPoint" />
          </mxGeometry>
        </mxCell>
        <mxCell id="4gxvxBFfsv67P0vdj7MG-35" style="edgeStyle=orthogonalEdgeStyle;rounded=0;orthogonalLoop=1;jettySize=auto;html=1;entryX=0;entryY=0.5;entryDx=0;entryDy=0;" parent="1" edge="1">
          <mxGeometry relative="1" as="geometry">
            <mxPoint x="477.5" y="1460" as="sourcePoint" />
            <mxPoint x="515" y="1460" as="targetPoint" />
          </mxGeometry>
        </mxCell>
        <mxCell id="4gxvxBFfsv67P0vdj7MG-25" value="return code from&amp;nbsp;&lt;div&gt;torture() test ?&lt;/div&gt;" style="rhombus;whiteSpace=wrap;html=1;" parent="1" vertex="1">
          <mxGeometry x="320" y="1380" width="155" height="160" as="geometry" />
        </mxCell>
        <mxCell id="4gxvxBFfsv67P0vdj7MG-28" value="YES" style="text;html=1;align=center;verticalAlign=middle;resizable=0;points=[];autosize=1;strokeColor=none;fillColor=none;fontSize=16;" parent="1" vertex="1">
          <mxGeometry x="390" y="1160" width="60" height="30" as="geometry" />
        </mxCell>
        <mxCell id="4gxvxBFfsv67P0vdj7MG-32" style="edgeStyle=orthogonalEdgeStyle;rounded=0;orthogonalLoop=1;jettySize=auto;html=1;" parent="1" edge="1">
          <mxGeometry relative="1" as="geometry">
            <mxPoint x="205" y="1090" as="targetPoint" />
            <mxPoint x="205" y="1395" as="sourcePoint" />
          </mxGeometry>
        </mxCell>
        <mxCell id="4gxvxBFfsv67P0vdj7MG-30" value="&lt;div&gt;increment bad block count (bb_cnt ++)&lt;/div&gt;" style="whiteSpace=wrap;html=1;aspect=fixed;" parent="1" vertex="1">
          <mxGeometry x="140" y="1380" width="130" height="130" as="geometry" />
        </mxCell>
        <mxCell id="4gxvxBFfsv67P0vdj7MG-36" style="edgeStyle=orthogonalEdgeStyle;rounded=0;orthogonalLoop=1;jettySize=auto;html=1;" parent="1" edge="1">
          <mxGeometry relative="1" as="geometry">
            <mxPoint x="580" y="640" as="targetPoint" />
            <mxPoint x="580" y="1390" as="sourcePoint" />
          </mxGeometry>
        </mxCell>
        <mxCell id="4gxvxBFfsv67P0vdj7MG-34" value="Log i-th block is not bad and display error message&lt;br&gt;&lt;br&gt;make rc=1" style="whiteSpace=wrap;html=1;aspect=fixed;" parent="1" vertex="1">
          <mxGeometry x="520" y="1390" width="130" height="130" as="geometry" />
        </mxCell>
        <mxCell id="4gxvxBFfsv67P0vdj7MG-37" value="" style="endArrow=classic;html=1;rounded=0;" parent="1" edge="1">
          <mxGeometry width="50" height="50" relative="1" as="geometry">
            <mxPoint x="580" y="640" as="sourcePoint" />
            <mxPoint x="410" y="640" as="targetPoint" />
          </mxGeometry>
        </mxCell>
        <mxCell id="4gxvxBFfsv67P0vdj7MG-38" value="1" style="text;html=1;align=center;verticalAlign=middle;resizable=0;points=[];autosize=1;strokeColor=none;fillColor=none;fontSize=17;" parent="1" vertex="1">
          <mxGeometry x="300" y="1430" width="30" height="30" as="geometry" />
        </mxCell>
        <mxCell id="4gxvxBFfsv67P0vdj7MG-39" value="0" style="text;html=1;align=center;verticalAlign=middle;resizable=0;points=[];autosize=1;strokeColor=none;fillColor=none;fontSize=16;" parent="1" vertex="1">
          <mxGeometry x="470" y="1430" width="30" height="30" as="geometry" />
        </mxCell>
        <mxCell id="4gxvxBFfsv67P0vdj7MG-40" value="i++" style="text;html=1;align=center;verticalAlign=middle;resizable=0;points=[];autosize=1;strokeColor=none;fillColor=none;fontSize=21;" parent="1" vertex="1">
          <mxGeometry x="535" y="943" width="50" height="40" as="geometry" />
        </mxCell>
        <mxCell id="4gxvxBFfsv67P0vdj7MG-48" style="edgeStyle=orthogonalEdgeStyle;rounded=0;orthogonalLoop=1;jettySize=auto;html=1;" parent="1" source="4gxvxBFfsv67P0vdj7MG-41" edge="1">
          <mxGeometry relative="1" as="geometry">
            <mxPoint x="680" y="1640" as="targetPoint" />
          </mxGeometry>
        </mxCell>
        <mxCell id="4gxvxBFfsv67P0vdj7MG-41" value="&lt;br&gt;&lt;br&gt;i &amp;lt; BLOCK_CNT (1024)&lt;br&gt;?" style="rhombus;whiteSpace=wrap;html=1;" parent="1" vertex="1">
          <mxGeometry x="322.5" y="650" width="165" height="160" as="geometry" />
        </mxCell>
        <mxCell id="4gxvxBFfsv67P0vdj7MG-46" value="" style="endArrow=classic;html=1;rounded=0;entryX=0.55;entryY=-0.002;entryDx=0;entryDy=0;exitX=0.53;exitY=1;exitDx=0;exitDy=0;entryPerimeter=0;exitPerimeter=0;" parent="1" target="4gxvxBFfsv67P0vdj7MG-6" edge="1">
          <mxGeometry width="50" height="50" relative="1" as="geometry">
            <mxPoint x="406.4699999999999" y="810" as="sourcePoint" />
            <mxPoint x="403.52" y="829.5799999999999" as="targetPoint" />
          </mxGeometry>
        </mxCell>
        <mxCell id="4gxvxBFfsv67P0vdj7MG-47" value="&lt;font style=&quot;font-size: 16px;&quot;&gt;Yes&lt;/font&gt;" style="text;html=1;align=center;verticalAlign=middle;resizable=0;points=[];autosize=1;strokeColor=none;fillColor=none;" parent="1" vertex="1">
          <mxGeometry x="410" y="798" width="50" height="30" as="geometry" />
        </mxCell>
        <mxCell id="4gxvxBFfsv67P0vdj7MG-49" value="&lt;font style=&quot;font-size: 16px;&quot;&gt;NO&lt;/font&gt;" style="text;html=1;align=center;verticalAlign=middle;resizable=0;points=[];autosize=1;strokeColor=none;fillColor=none;" parent="1" vertex="1">
          <mxGeometry x="475" y="700" width="50" height="30" as="geometry" />
        </mxCell>
        <mxCell id="4gxvxBFfsv67P0vdj7MG-55" value="" style="edgeStyle=orthogonalEdgeStyle;rounded=0;orthogonalLoop=1;jettySize=auto;html=1;" parent="1" source="4gxvxBFfsv67P0vdj7MG-51" target="4gxvxBFfsv67P0vdj7MG-53" edge="1">
          <mxGeometry relative="1" as="geometry" />
        </mxCell>
        <mxCell id="4gxvxBFfsv67P0vdj7MG-51" value="if bb_cnt != bit_bb_cnt, make rc=1" style="rounded=0;whiteSpace=wrap;html=1;" parent="1" vertex="1">
          <mxGeometry x="296.25" y="1590" width="202.5" height="100" as="geometry" />
        </mxCell>
        <mxCell id="4gxvxBFfsv67P0vdj7MG-52" value="" style="endArrow=classic;html=1;rounded=0;entryX=1;entryY=0.5;entryDx=0;entryDy=0;" parent="1" target="4gxvxBFfsv67P0vdj7MG-51" edge="1">
          <mxGeometry width="50" height="50" relative="1" as="geometry">
            <mxPoint x="680" y="1640" as="sourcePoint" />
            <mxPoint x="580" y="1540" as="targetPoint" />
          </mxGeometry>
        </mxCell>
        <mxCell id="4gxvxBFfsv67P0vdj7MG-58" value="" style="edgeStyle=orthogonalEdgeStyle;rounded=0;orthogonalLoop=1;jettySize=auto;html=1;" parent="1" source="4gxvxBFfsv67P0vdj7MG-53" target="4gxvxBFfsv67P0vdj7MG-56" edge="1">
          <mxGeometry relative="1" as="geometry" />
        </mxCell>
        <mxCell id="4gxvxBFfsv67P0vdj7MG-59" value="" style="edgeStyle=orthogonalEdgeStyle;rounded=0;orthogonalLoop=1;jettySize=auto;html=1;" parent="1" source="4gxvxBFfsv67P0vdj7MG-53" target="4gxvxBFfsv67P0vdj7MG-57" edge="1">
          <mxGeometry relative="1" as="geometry" />
        </mxCell>
        <mxCell id="4gxvxBFfsv67P0vdj7MG-53" value="&lt;font style=&quot;font-size: 16px;&quot;&gt;rc ?&lt;/font&gt;" style="rhombus;whiteSpace=wrap;html=1;" parent="1" vertex="1">
          <mxGeometry x="317.5" y="1730" width="160" height="150" as="geometry" />
        </mxCell>
        <mxCell id="4gxvxBFfsv67P0vdj7MG-61" style="edgeStyle=orthogonalEdgeStyle;rounded=0;orthogonalLoop=1;jettySize=auto;html=1;" parent="1" source="4gxvxBFfsv67P0vdj7MG-56" edge="1">
          <mxGeometry relative="1" as="geometry">
            <mxPoint x="205" y="1970" as="targetPoint" />
          </mxGeometry>
        </mxCell>
        <mxCell id="4gxvxBFfsv67P0vdj7MG-56" value="Return&amp;nbsp;TC_FAIL" style="rounded=0;whiteSpace=wrap;html=1;" parent="1" vertex="1">
          <mxGeometry x="140" y="1762.5" width="130" height="85" as="geometry" />
        </mxCell>
        <mxCell id="4gxvxBFfsv67P0vdj7MG-62" style="edgeStyle=orthogonalEdgeStyle;rounded=0;orthogonalLoop=1;jettySize=auto;html=1;" parent="1" source="4gxvxBFfsv67P0vdj7MG-57" edge="1">
          <mxGeometry relative="1" as="geometry">
            <mxPoint x="585" y="1970" as="targetPoint" />
          </mxGeometry>
        </mxCell>
        <mxCell id="4gxvxBFfsv67P0vdj7MG-57" value="Return&amp;nbsp;TC_PASS" style="rounded=0;whiteSpace=wrap;html=1;" parent="1" vertex="1">
          <mxGeometry x="520" y="1762.5" width="130" height="85" as="geometry" />
        </mxCell>
        <mxCell id="4gxvxBFfsv67P0vdj7MG-60" value="Stop" style="rounded=1;whiteSpace=wrap;html=1;" parent="1" vertex="1">
          <mxGeometry x="337.5" y="1940" width="120" height="60" as="geometry" />
        </mxCell>
        <mxCell id="4gxvxBFfsv67P0vdj7MG-63" value="" style="endArrow=classic;html=1;rounded=0;entryX=0;entryY=0.5;entryDx=0;entryDy=0;" parent="1" target="4gxvxBFfsv67P0vdj7MG-60" edge="1">
          <mxGeometry width="50" height="50" relative="1" as="geometry">
            <mxPoint x="210" y="1970" as="sourcePoint" />
            <mxPoint x="580" y="1660" as="targetPoint" />
          </mxGeometry>
        </mxCell>
        <mxCell id="4gxvxBFfsv67P0vdj7MG-64" value="" style="endArrow=classic;html=1;rounded=0;entryX=1;entryY=0.5;entryDx=0;entryDy=0;" parent="1" target="4gxvxBFfsv67P0vdj7MG-60" edge="1">
          <mxGeometry width="50" height="50" relative="1" as="geometry">
            <mxPoint x="580" y="1970" as="sourcePoint" />
            <mxPoint x="580" y="1660" as="targetPoint" />
          </mxGeometry>
        </mxCell>
        <mxCell id="4gxvxBFfsv67P0vdj7MG-65" value="&lt;font style=&quot;font-size: 16px;&quot;&gt;1&lt;/font&gt;" style="text;html=1;align=center;verticalAlign=middle;resizable=0;points=[];autosize=1;strokeColor=none;fillColor=none;" parent="1" vertex="1">
          <mxGeometry x="296.25" y="1770" width="30" height="30" as="geometry" />
        </mxCell>
        <mxCell id="4gxvxBFfsv67P0vdj7MG-66" value="&lt;font style=&quot;font-size: 16px;&quot;&gt;0&lt;/font&gt;" style="text;html=1;align=center;verticalAlign=middle;resizable=0;points=[];autosize=1;strokeColor=none;fillColor=none;" parent="1" vertex="1">
          <mxGeometry x="468.75" y="1770" width="30" height="30" as="geometry" />
        </mxCell>
      </root>
    </mxGraphModel>
  </diagram>
</mxfile>
